<?xml version="1.0" encoding="utf-8"?>
<!-- Generator: Adobe Illustrator 16.0.0, SVG Export Plug-In . SVG Version: 6.00 Build 0)  -->
<!DOCTYPE svg PUBLIC "-//W3C//DTD SVG 1.1//EN" "http://www.w3.org/Graphics/SVG/1.1/DTD/svg11.dtd">
<svg version="1.1" xmlns="http://www.w3.org/2000/svg" xmlns:xlink="http://www.w3.org/1999/xlink" x="0px" y="0px" width="500px"
	 height="500px" viewBox="0 0 500 500" enable-background="new 0 0 500 500" xml:space="preserve">
<g id="圖層_1">
	<path fill="#CDCFD1" d="M124.371,450.691c2.947,18.721,20.675,31.624,39.394,28.678l234.401-36.905
		c18.719-2.947,31.625-20.675,28.676-39.396L375.631,77.793c-2.949-18.72-20.676-31.625-39.395-28.677L101.835,86.021
		c-18.72,2.947-31.625,20.675-28.678,39.395L124.371,450.691z"/>
	<path opacity="0.15" fill="#221F20" d="M408.699,287.831l-1.32,152.302c-2.807,1.664-9.361,2.39-12.896,2.921l-110.578,16.459
		c0,0-157.788-2.828-158.354-2.871l-18.069-132.195l-4.782-223.162l6.288-1.448l294.098,153.884L408.699,287.831z"/>
	<path fill="#F6F4F4" d="M91.721,410.476c-0.605,18.94,14.396,34.932,33.336,35.539l237.166,7.579
		c18.939,0.605,34.932-14.396,35.537-33.337l10.52-329.115c0.605-18.94-14.396-34.933-33.336-35.538l-237.165-7.581
		c-18.94-0.605-34.933,14.396-35.538,33.337L91.721,410.476z"/>
	<path opacity="0.2" fill="#221F20" d="M330.439,58.677l2.723,75.538c0,0-1.512,10.12,9.154,10.947
		c10.66,0.829,64.938-9.353,64.938-9.353L330.439,58.677z"/>
	<path fill="#DEDEDE" d="M330.512,54.462l-1.189,69.555c0,0-1.51,10.12,9.154,10.949c10.662,0.829,68.771,1.176,68.771,1.176
		L330.512,54.462z"/>
	<path opacity="0.15" fill="#221F20" d="M345.926,239.798c-0.094,2.634-2.305,4.696-4.939,4.604l-182.219-5.732
		c-2.635-0.092-4.696-2.302-4.604-4.936l0,0c0.091-2.635,2.301-4.695,4.936-4.604l182.219,5.733
		C343.953,234.955,346.016,237.164,345.926,239.798L345.926,239.798z"/>
	<path opacity="0.15" fill="#221F20" d="M292.133,257.586c-0.092,2.638-2.305,4.696-4.939,4.605l-128.764-4.486
		c-2.635-0.091-4.696-2.299-4.604-4.938l0,0c0.092-2.633,2.301-4.693,4.936-4.602l128.764,4.486
		C290.163,252.743,292.225,254.953,292.133,257.586L292.133,257.586z"/>
	<path opacity="0.15" fill="#221F20" d="M345.215,279.952c-0.092,2.636-2.307,4.695-4.939,4.604l-182.219-5.732
		c-2.636-0.092-4.697-2.301-4.605-4.937l0,0c0.091-2.634,2.302-4.696,4.937-4.604l182.219,5.733
		C343.242,275.107,345.305,277.318,345.215,279.952L345.215,279.952z"/>
	<path opacity="0.15" fill="#221F20" d="M273.817,300.609c-0.093,2.639-2.305,4.695-4.94,4.604l-111.221-3.874
		c-2.635-0.091-4.696-2.298-4.604-4.935l0,0c0.092-2.639,2.301-4.695,4.938-4.604l111.22,3.873
		C271.846,295.768,273.907,297.973,273.817,300.609L273.817,300.609z"/>
	<path opacity="0.15" fill="#221F20" d="M294.494,322.461c-0.092,2.637-2.305,4.697-4.939,4.605l-132.272-4.609
		c-2.636-0.091-4.697-2.299-4.604-4.936l0,0c0.091-2.635,2.301-4.694,4.936-4.602l132.272,4.607
		C292.522,317.62,294.586,319.826,294.494,322.461L294.494,322.461z"/>
	<path opacity="0.15" fill="#221F20" d="M344.037,346.381c-0.094,2.637-2.305,4.695-4.939,4.604l-182.22-5.733
		c-2.635-0.091-4.695-2.299-4.604-4.936l0,0c0.092-2.633,2.301-4.693,4.937-4.603l182.221,5.732
		C342.064,341.538,344.129,343.748,344.037,346.381L344.037,346.381z"/>
	<path opacity="0.15" fill="#221F20" d="M343.67,367.059c-0.092,2.632-2.307,4.693-4.939,4.602l-182.218-5.732
		c-2.636-0.093-4.697-2.303-4.604-4.937l0,0c0.091-2.634,2.302-4.695,4.937-4.603l182.22,5.732
		C341.697,362.213,343.762,364.424,343.67,367.059L343.67,367.059z"/>
	<path opacity="0.2" fill="#919396" d="M257.625,197.014c-0.08,4.446-3.747,7.986-8.192,7.907l-83.938-1.487
		c-4.446-0.079-7.986-3.747-7.908-8.193l1.08-60.884c0.078-4.447,3.747-7.987,8.193-7.908l83.938,1.487
		c4.446,0.079,7.987,3.747,7.907,8.193L257.625,197.014z"/>
	<g>
		<path fill="#1E4A6E" d="M178.729,107.72c-1.856,0.898-4.281,1.348-7.272,1.348c-3.903,0-6.972-1.147-9.207-3.442
			c-2.235-2.294-3.353-5.351-3.353-9.171c0-4.068,1.256-7.367,3.769-9.898c2.513-2.53,5.774-3.796,9.783-3.796
			c2.484,0,4.577,0.314,6.28,0.94v5.516c-1.703-1.017-3.642-1.524-5.818-1.524c-2.389,0-4.316,0.751-5.783,2.253
			c-1.466,1.501-2.199,3.536-2.199,6.102c0,2.46,0.691,4.42,2.075,5.881c1.384,1.46,3.247,2.19,5.588,2.19
			c2.235,0,4.281-0.544,6.138-1.632V107.72z"/>
		<path fill="#1E4A6E" d="M204.346,83.186l-8.764,25.438h-6.492l-8.657-25.438h6.173l5.304,17.704
			c0.284,0.958,0.456,1.804,0.515,2.537h0.106c0.082-0.792,0.266-1.662,0.549-2.608l5.269-17.633H204.346z"/>
	</g>
</g>
<g id="圖層_2">
	<path fill="#D2A694" d="M204.226,190.41l9.357,0.22l0.223,0.005l5.401,0.127l6.193,0.146c-1.538-0.606-3.842-1.384-6.124-2.56
		c-1.642-0.835-3.269-1.882-4.587-3.214c-0.073-0.067-0.146-0.144-0.215-0.221c-0.17-0.173-0.333-0.362-0.49-0.549
		c-1.489-1.788-2.271-3.906-2.673-5.796c-0.596-2.796-0.367-5.092-0.367-5.092l-3.018-0.071c0,0,0.05,0.483-0.185,2.831
		c-0.091,0.875-0.199,1.722-0.421,2.603c0,0.004-0.004,0.008-0.004,0.013c-0.377,1.473-1.067,3.025-2.466,4.917
		c-0.298,0.405-0.673,0.804-1.097,1.193l-0.005,0.003c-1.357,1.252-3.257,2.422-5.085,3.435c-1.229,0.681-2.428,1.288-3.413,1.8
		l3.363,0.079l5.607,0.132H204.226z"/>
	<path fill="#BE9B90" d="M211.312,178.55c-1.009-0.423-1.958-0.924-2.729-1.51c-0.306-0.23-0.59-0.459-0.853-0.687
		c0.005-0.04,0.006-0.083,0.01-0.121c0.24-2.345,0.189-2.828,0.189-2.828l3.014,0.071
		C210.943,173.475,210.714,175.76,211.312,178.55z"/>
	<path fill="#D0D2D3" d="M225.554,190.912l-33.071-0.778c0.617-0.337,1.274-0.703,1.971-1.102c0.644-0.372,1.325-0.764,2.004-1.165
		c0.031-0.015,0.062-0.037,0.097-0.054c0.702-0.39,1.43-0.798,2.157-1.214c1.558-0.885,3.105-1.791,4.334-2.629
		c0.003-0.005,0.009-0.005,0.013-0.008c0.166-0.115,0.322-0.225,0.473-0.331c0.81-0.581,1.441-1.127,1.79-1.596
		c1.019-1.379,1.833-2.886,1.995-3.184c0-0.005,0.004-0.008,0.004-0.013c0.014-0.031,0.022-0.044,0.022-0.044
		s0.247,2.544,2.086,2.434c1.752-0.099,1.872-2.445,1.882-2.66v-0.013c0.067,0.147,1.262,2.817,3.671,5.241
		c0.006,0.003,0.01,0.008,0.018,0.013c0.659,0.66,1.411,1.304,2.252,1.872c0.608,0.41,1.326,0.876,2.098,1.373
		C221.28,188.286,223.588,189.712,225.554,190.912z"/>
	<path fill="#404041" d="M204.222,190.41l-11.739-0.276c0.617-0.337,1.274-0.703,1.971-1.102c0.644-0.372,1.325-0.764,2.004-1.165
		c0.031-0.015,0.062-0.037,0.097-0.054c0.726-0.425,1.455-0.85,2.158-1.263l0.066-0.042c1.848-1.092,3.476-2.063,4.267-2.539
		c0.003-0.005,0.009-0.005,0.013-0.008c0.267-0.16,0.436-0.261,0.485-0.291c0.007-0.004,0.013-0.008,0.013-0.008
		s0.004,0.025,0.017,0.083l0.041,0.271l0.053,0.339l0.057,0.387c0.007,0.057,0.015,0.119,0.021,0.18
		c0,0.009,0.004,0.022,0.009,0.036c0,0.018,0,0.031,0.002,0.047c0.016,0.102,0.031,0.207,0.042,0.317
		c0.017,0.145,0.035,0.294,0.054,0.453c0.015,0.118,0.029,0.246,0.04,0.374c0.044,0.382,0.086,0.812,0.127,1.278
		c0.014,0.136,0.024,0.272,0.038,0.418c0.018,0.192,0.031,0.398,0.047,0.605c0.01,0.158,0.023,0.321,0.033,0.486
		c0.02,0.238,0.037,0.489,0.047,0.743c0.014,0.188,0.023,0.382,0.031,0.579C204.22,190.309,204.223,190.362,204.222,190.41z"/>
	<path opacity="0.68" fill="#A6A8AB" d="M207.334,179.234c0,0-0.338-0.421-0.592,0.267c-0.252,0.688-1.214,2.747-1.96,3.386
		c-0.745,0.64-1.302,1.211-1.302,1.211l0.259,3.349c0,0,1.927-0.683,2.92-2.027c0.993-1.343,1.66-3.291,1.819-3.614
		c0.192-0.388,0.737-0.582,0.737-0.582s0.577,0.156,0.794,0.343c0.205,0.179,0.322,0.31,0.446,0.806
		c0.125,0.496,0.832,2.337,1.826,3.101c0.998,0.763,1.813,1.852,1.813,1.852l0.927-3.205c0,0-1.008-1.008-1.419-1.58
		c-0.411-0.57-1.884-3.152-2.069-3.444c-0.186-0.292-0.231-0.11-0.231-0.11s-0.489,1.544-1.113,1.928
		c-0.625,0.381-0.974,0.308-0.974,0.308s-0.372-0.14-0.606-0.328c-0.232-0.188-0.916-1.009-1.064-1.304
		C207.395,179.298,207.334,179.234,207.334,179.234z"/>
	<path fill="#D0D2D3" d="M207.344,178.796c0,0-0.338-0.421-0.592,0.267c-0.252,0.689-1.214,2.748-1.96,3.388
		c-0.745,0.64-1.302,1.21-1.302,1.21l0.264,3.111c0,0,1.908-0.67,2.901-2.015c0.994-1.342,1.554-3.16,1.833-3.39
		c0.279-0.229,0.727-0.144,0.727-0.144s0.495-0.033,0.666,0.016c0.169,0.049,0.461,0.199,0.585,0.695
		c0.125,0.497,0.629,2.398,1.624,3.161c0.996,0.763,2.015,1.792,2.015,1.792l0.927-3.204c0,0-1.008-1.008-1.419-1.58
		c-0.411-0.571-1.884-3.154-2.069-3.445c-0.186-0.292-0.231-0.111-0.231-0.111s-0.489,1.545-1.113,1.927
		c-0.625,0.382-0.976,0.697-0.976,0.697s-0.37-0.527-0.604-0.716c-0.232-0.187-0.916-1.006-1.064-1.303
		C207.405,178.86,207.344,178.796,207.344,178.796z"/>
	<path fill="#404041" d="M230.224,191.021C230.224,191.021,230.228,190.868,230.224,191.021l-16.417-0.386
		c0.271-2.412,0.622-4.298,0.884-5.501c0.136-0.646,0.249-1.094,0.311-1.325c0.015-0.052,0.024-0.091,0.034-0.122l0-0.009
		c0.009-0.035,0.014-0.052,0.014-0.052s0.005,0,0.008,0.004c0.138,0.096,1.904,1.264,4.159,2.64l0.241,0.15
		c1.349,0.82,2.784,1.838,4.277,2.472C228.043,190.724,230.224,191.021,230.224,191.021z"/>
	<path fill="none" d="M192.483,190.134l-0.153-0.004 M195.251,190.199l3.363,0.079l5.607,0.132h0.004l9.357,0.22l0.223,0.005
		l5.401,0.127l6.193,0.146l0.153,0.003"/>
	
		<rect x="202.731" y="189.301" transform="matrix(0.9997 0.0235 -0.0235 0.9997 4.6787 -4.8487)" fill="#D0D2D3" width="11.994" height="14.85"/>
	<path fill="#58595B" d="M219.351,187.053l-0.045,0.283c0,0-0.009,0.365-0.029,1.012c-0.014,0.592-0.038,1.415-0.069,2.414
		l-5.625-0.132c0.292-2.575,0.654-4.525,0.86-5.642l0.032-0.075l0.508-1.117l0.024-0.048l0.027-0.06l0-0.009l0.022-0.048v-0.004
		L219.351,187.053z"/>
	<path fill="#58595B" d="M204.226,190.41c-0.003-0.047-0.006-0.097-0.01-0.149c-0.008-0.197-0.017-0.391-0.031-0.579
		c-0.011-0.254-0.027-0.505-0.047-0.743c-0.009-0.166-0.023-0.329-0.033-0.486c-0.017-0.207-0.03-0.413-0.047-0.605
		c-0.013-0.146-0.024-0.283-0.038-0.418c-0.042-0.466-0.083-0.896-0.127-1.278c-0.011-0.128-0.025-0.255-0.04-0.374
		c-0.019-0.159-0.037-0.308-0.054-0.453c-0.011-0.11-0.027-0.215-0.042-0.317c0-0.016-0.003-0.029-0.007-0.044
		c0-0.012,0-0.026-0.004-0.04c-0.006-0.061-0.015-0.123-0.021-0.18l-0.057-0.387l-0.053-0.339l-0.041-0.271l-0.029-0.076
		l-0.012-0.04l-0.038-0.098l-4.715,2.976l-0.066,0.042c0,0,0,0.017-0.001,0.049c-0.004,0.174-0.025,0.814-0.048,1.799
		c-0.013,0.535-0.033,1.166-0.05,1.879l5.607,0.132H204.226z"/>
	<path fill="#58595B" d="M213.633,190.547c0,0-1.601,13.684-1.58,13.685s15.914,0.375,15.914,0.375s0.402-9.037,0.298-12.657
		c-0.105-3.62-4.638-2.68-4.638-2.68L213.633,190.547z"/>
	<polygon fill="#58595B" points="204.223,190.361 205.741,204.083 189.425,203.699 189.68,192.85 194.789,188.839 	"/>
	<path fill="#390B1E" d="M192.996,153.836l0.085-0.152c0,0-0.539,10.426,0.561,16.257c0,0-2.717,7.192-2.313,8.708
		c0.405,1.515-2.208,2.91-3.532,4.354c-1.325,1.445-2.882,8.25,0.63,9.804c0,0,3.157,8.212,7.05,6.906c0,0-2.646-3.181-1.9-4.668
		c0,0-1.094,3.522,2.774,3.613c3.87,0.091,1.337-0.398,2.64,0.6c1.302,0.999,1.201,0.728,1.201,0.728s-0.381-2.751-0.824-4.16
		c-0.443-1.408,0.372-0.743,1.539,0.575c1.166,1.318-0.892-2.641-1.198-3.328c-0.306-0.686-0.539-2.949-0.514-2.519
		c0.025,0.431,1.327,1.82,2.148,2.557c0.82,0.738,2.755,1.356,2.755,1.356l-3.02-5.375l1.602,0.791c0,0,1.637-1.037,0.818-0.519
		c-0.818,0.519-3.494-2.168-3.494-2.168s-0.157,1.545-0.681-2.124c-0.523-3.668-0.056-5.915,0.463-7.085
		c0.519-1.17,0.636-1.92,0.504-2.999c-0.132-1.079,0.88-7.545,0.88-7.545l-3.089-8.327L192.996,153.836z"/>
	<path fill="#390B1E" d="M224.453,154.159c0,0,0.296,9.795,1.481,11.972c1.186,2.177,1.034,4.055,3.172,6.847
		c2.139,2.792,3.238,6.366,3.133,8.514c-0.104,2.148-0.073,3.17-0.073,3.17s2.201,4.636-1.722,9.132c0,0-2.099,0.361-2.361-0.056
		c-0.262-0.416,0.135,0.668-0.936,1.772c-1.07,1.104-1.346,1.366-1.346,1.366l0.5,1.625c0,0,0.352,1.03-0.718,0.79
		c-1.069-0.24-5.406-1.847-5.527-2.011c-0.12-0.164-3.7-3.42-3.75-3.583c-0.05-0.162-1.27-3.148-1.27-3.148l1.146-5.295
		c0,0,2.85-6.062,1.738-8.346c-1.111-2.284-0.356-6.998-0.356-6.998l1.122-9.323L224.453,154.159z"/>
	<path fill="#D2A694" d="M196.088,156.197c0,0,0.685,13.896,5.663,16.19c0,0,2.057,1.742,3.083,2.452
		c1.027,0.71,3.999,1.223,4.699,0.594c0.701-0.628,3.313,1.429,7.984-3.451c0,0,2.408-2.11,3.308-7.372
		c0.9-5.26,1.933-7.418,1.122-11.263c-0.81-3.844-1.42-9.912-8.426-12.053c-7.006-2.14-9.275,0.064-10.645,1.726
		c-1.37,1.661-4.65,4.003-4.963,5.286C197.602,149.59,194.777,154.222,196.088,156.197z"/>
	<path fill="#CBA594" d="M198.089,158.155c0,0,1.027,7.614,2.229,9.066c1.203,1.453,1.835,2.918,2.493,4.17
		c0.658,1.253,0.894,2.109,0.894,2.41c0,0.3-3.471-2.991-3.471-2.991s-2.005-1.803-2.307-4.892
		c-0.301-3.089-0.594-4.875-0.653-6.162C197.214,158.47,198.089,158.155,198.089,158.155z"/>
	<path fill="#EAEAEA" d="M200.567,156.662c0,0,3.556-2.604,5.453,1.311C206.02,157.973,202.424,158.507,200.567,156.662z"/>
	<path fill="#EAEAEA" d="M212.605,157.913c0,0,1.294-3.537,5.002-1.209C217.608,156.704,216.394,157.948,212.605,157.913z"/>
	<path fill="#3E2526" d="M203.294,156.115c0,0-1.21,0.918,0.344,1.681c0,0,1.509,0.116,1.178-1.222
		C204.816,156.574,204.127,155.852,203.294,156.115z"/>
	<path fill="#3E2526" d="M213.524,156.607c0,0-0.106,1.083,1.102,1.165c1.208,0.082,0.899-1.646,0.764-1.622
		C215.255,156.174,214.728,155.74,213.524,156.607z"/>
	<path fill="none" stroke="#282828" stroke-miterlimit="10" d="M205.958,157.851c0,0-1.702-3.736-5.391-1.189"/>
	<path fill="none" stroke="#282828" stroke-miterlimit="10" d="M212.503,157.724c0,0,1.745-3.313,5.104-1.021"/>
	<circle fill="#1E2021" cx="203.784" cy="156.71" r="0.323"/>
	<circle fill="#1E2021" cx="214.46" cy="156.68" r="0.373"/>
	<ellipse fill="#FFFFFF" cx="203.407" cy="156.753" rx="0.128" ry="0.152"/>
	<ellipse fill="#FFFFFF" cx="204.387" cy="156.826" rx="0.121" ry="0.102"/>
	<ellipse fill="#FFFFFF" cx="214.097" cy="156.691" rx="0.131" ry="0.161"/>
	<ellipse fill="#FFFFFF" cx="215.074" cy="156.714" rx="0.121" ry="0.161"/>
	<path fill="#877171" d="M207.322,153.942L207.299,154l-0.117,0.288c0,0-5.204-1.843-8.059-0.364c0,0,2.129-1.896,2.499-1.981
		c0.371-0.085,4.624,0.98,5.336,1.575"/>
	<path fill="#877171" d="M211.218,154.117l0.363,0.573c0,0,6.805-1.319,7.785-0.677c0.979,0.641-1.771-2.407-3.839-1.381
		C213.459,153.659,211.654,153.858,211.218,154.117z"/>
	<path fill="#EBCCC1" d="M207.923,157.312c0,0,0.256,4.849-0.292,5.268c-0.548,0.418-2.849,1.09-1.268,2.471
		c0,0,0.21,0.22,0.29,0.222c0.081,0.002-0.042-0.673,0.416-0.582c0.456,0.091,0.884,0.208,1.067,0.428
		c0.182,0.219,0.683,0.635,0.979,0.615s0.964,0.157,1.44-0.638s1.417-0.074,1.649-0.015c0.231,0.059,1.772-0.901-0.202-2.398
		c-1.974-1.497-0.75-4.364-0.853-5.713"/>
	<path fill="#975D50" d="M206.654,165.273c0,0,0.048-1.154,1.483-0.154C208.137,165.119,206.973,164.844,206.654,165.273z"/>
	<path fill="#975D50" d="M210.556,165.096c0,0,0.412-0.664,1.394-0.133C211.95,164.963,210.721,164.867,210.556,165.096z"/>
	<path fill="#F8E6E3" d="M209.072,157.339c-0.002,0-0.166,4.084-0.255,4.854c-0.102,0.864-0.018,0.745,0.275,1.155
		c0.293,0.411,0.423-2.55,0.423-2.55"/>
	<path fill="#CCA897" d="M211.248,154.972c0.007-0.021-1.9,3.301-0.353,6.08c1.547,2.778,0.658,0.541,0.658,0.541
		s0.122-5.179,0.124-5.26c0.002-0.08,0.795-1.271,0.736-1.333c-0.059-0.062,0.035-0.472,0.035-0.472L211.248,154.972z"/>
	<path fill="#CCA897" d="M207.185,154.403c0,0,0.986,3.495,0.63,4.94c-0.356,1.445-1.814-3.427-1.814-3.427l0.344-1.766
		L207.185,154.403z"/>
	<path fill="#BB7075" d="M204.78,168.387c0,0,3.365-1.16,4.217-0.319c0,0,1.102-0.658,2.102-0.298
		c0.999,0.359,2.852,0.456,3.169,0.666c0.317,0.208-3.08,1.822-3.325,1.917c-0.244,0.096-3.916,1.353-6.276-1.713l-0.357-0.237
		L204.78,168.387z"/>
	<path fill="none" stroke="#B95D64" stroke-width="0.5" stroke-miterlimit="10" d="M204.707,168.627c0,0,1.278,0.527,1.807,0.311
		c0.529-0.216,1.612,0.004,2.165-0.053c0.552-0.058,1.381,0.15,1.694-0.018c0.313-0.167,1.72-0.027,1.868,0.003
		c0.147,0.031,1.039-0.083,1.135,0.068c0.097,0.15,0.594-0.417,0.594-0.417"/>
	
		<ellipse transform="matrix(0.9997 0.0235 -0.0235 0.9997 3.8794 -4.7051)" opacity="0.1" fill="#BB7075" cx="201.708" cy="162.36" rx="3.027" ry="2.172"/>
	
		<ellipse transform="matrix(0.9997 0.0235 -0.0235 0.9997 3.864 -5.046)" opacity="0.1" fill="#BB7075" cx="216.875" cy="162.072" rx="3.027" ry="2.171"/>
	<path fill="#390B1E" d="M209.974,141.292c0,0-6.555,3.825-7.31,3.914c-0.755,0.09-2.871,2.782-3.654,3.14
		c-0.782,0.358-2.059,4.33-2.718,4.92c-0.659,0.591-0.366,1.828-0.366,1.828l0.521,0.789l-0.956,1.722l-2.023-1.792l-0.487-1.298
		c0,0,0.813-7,1.313-7.683c0.5-0.683,1.893-11.295,14.138-11.06c0,0,7.574-2.295,13.128,6.115c0,0,2.396,3.283,2.404,7.53
		c0.007,4.248,0.801,4.562,0.758,5.398c-0.042,0.838-2.503,2.291-2.503,2.291s-0.395-0.439-0.377-2.746
		c0.017-2.305-4.004-11.217-6.995-11.287L209.974,141.292z"/>
	<path fill="#D2A694" d="M196.742,156.212c0,0-2.177-2.629-3.352-1.682c-1.175,0.948,0.383,3.558,0.551,4.973
		c0.168,1.415,1.664,3.83,1.967,3.776c0.304-0.053,1.165,0.255,1.203,0.426C197.149,163.876,196.742,156.212,196.742,156.212z"/>
	<path fill="#D2A694" d="M221.867,156.804c0,0,1.757-2.731,2.111-2.36c0.354,0.372,1.465,1.153-0.088,3.743
		c0,0-0.435,2.455-0.717,2.771c-0.283,0.316-0.14,1.085-0.225,1.285c-0.085,0.2,0.005,1.78-2.14,1.123
		c-2.145-0.659-0.634-3.204-0.634-3.204L221.867,156.804z"/>
	<path fill="#CBA594" d="M213.571,173.473c0,0,4.764-4.208,5.401-8.484c0.638-4.276,1.777-3.648,2.484-5.042
		c0.708-1.394-0.285,2.952-0.285,2.952l-0.772,3.103l-0.779,2.317c0,0-0.735,1.98-0.77,1.947c-0.034-0.032-1.603,1.711-1.603,1.711
		l-1.703,1.542l-1.504,0.967L213.571,173.473z"/>
	<path fill="none" stroke="#B78671" stroke-miterlimit="10" d="M195.5,157.214c0,0-1.746-2.353-1.943-1.954
		c-0.197,0.398-0.042,1.828,0.161,2.303c0.204,0.475,0.534,2.449,0.935,2.55c0.401,0.101,0.437,0.87,0.485,1.092
		c0.048,0.222,0.036,0.747,0.249,0.852"/>
	<path fill="none" stroke="#B78671" stroke-miterlimit="10" d="M195.486,157.828c0,0-0.994,1.086-0.546,1.485
		c0.448,0.399,0.469,0.668,0.729,0.998c0.261,0.329,0.105,0.109,0.444,0.548"/>
	<path fill="none" stroke="#B78671" stroke-miterlimit="10" d="M222.515,157.246c0,0,0.932-0.974,1.041-1.502
		c0.108-0.528,0.3-0.658,0.614-0.301c0.314,0.357,0.324,1.069-0.039,1.646s-0.744,1.225-0.719,1.663s-0.415,0.858-0.401,1.423
		c0.014,0.564,0.122,0.566-0.047,0.832"/>
	<path fill="none" stroke="#B78671" stroke-miterlimit="10" d="M222.6,158.472c0,0,0.265,0.435-0.024,1.02
		c-0.289,0.584-0.024,0.736-0.276,1.181"/>
</g>
</svg>
